HIERARCHY
ROOT Root
{
  OFFSET 6.91964 12.0689 36.1781
  CHANNELS 6 Xposition Yposition Zposition Zrotation Xrotation Yrotation
  JOINT Spine
  {
    OFFSET 5.3114 0 0
    CHANNELS 3 Zrotation Xrotation Yrotation
    JOINT Spine1
    {
      OFFSET 2.79004 0 0
      CHANNELS 3 Zrotation Xrotation Yrotation
      JOINT Neck
      {
        OFFSET 1.43377 0 0
        CHANNELS 3 Zrotation Xrotation Yrotation
        JOINT Head
        {
          OFFSET 1.86043 0 0
          CHANNELS 3 Zrotation Xrotation Yrotation
          End Site
          {
            OFFSET 0 0 0
          }
        }
      }
      JOINT LeftArm
      {
        OFFSET 0.0387506 0 2.55754
        CHANNELS 3 Zrotation Xrotation Yrotation
        JOINT LeftForeArm
        {
          OFFSET 4.24845 0 0
          CHANNELS 3 Zrotation Xrotation Yrotation
          JOINT LeftHand
          {
            OFFSET 4.01008 0 0
            CHANNELS 3 Zrotation Xrotation Yrotation
            End Site
            {
              OFFSET 0 0 0
            }
          }
        }
      }
      JOINT RightArm
      {
        OFFSET 0.0387506 0 -2.55754
        CHANNELS 3 Zrotation Xrotation Yrotation
        JOINT RightForeArm
        {
          OFFSET -4.24845 0 0
          CHANNELS 3 Zrotation Xrotation Yrotation
          JOINT RightHand
          {
            OFFSET -4.01009 0 0
            CHANNELS 3 Zrotation Xrotation Yrotation
            End Site
            {
              OFFSET 0 0 0
            }
          }
        }
      }
    }
  }
  JOINT LeftUpLeg
  {
    OFFSET -1.23318 0 2.05692
    CHANNELS 3 Zrotation Xrotation Yrotation
    JOINT LeftLeg
    {
      OFFSET 5.46397 0 0
      CHANNELS 3 Zrotation Xrotation Yrotation
      JOINT LeftFoot
      {
        OFFSET 4.68898 0 0
        CHANNELS 3 Zrotation Xrotation Yrotation
        End Site
        {
          OFFSET 0 0 0
        }
      }
    }
  }
  JOINT RightUpLeg
  {
    OFFSET -1.24454 0 -2.05007
    CHANNELS 3 Zrotation Xrotation Yrotation
    JOINT RightLeg
    {
      OFFSET -5.46397 0 0
      CHANNELS 3 Zrotation Xrotation Yrotation
      JOINT RightFoot
      {
        OFFSET -4.68901 0 0
        CHANNELS 3 Zrotation Xrotation Yrotation
        End Site
        {
          OFFSET 0 0 0
        }
      }
    }
  }
}
MOTION
Frames:	21
Frame Time:	0.0416667
6.91964 12.0689 36.1781 -0 90 90 9.69808e-018 1.34041e-020 0.158382 1.41245e-030 7.06225e-031 2.48481e-017 -7.30747e-017 7.61111e-019 -1.19349 3.40995e-017 1.65719e-019 0.556895 -2.12238e-008 -1.53545e-005 -90.1584 -2.50273e-005 -2.47192e-012 6.55612e-006 1.52588e-005 -6.98387e-015 174.455 180 -4.60993e-005 -89.8417 -5.49628e-005 -2.25992e-011 3.612e-005 1.52588e-005 6.98395e-015 174.462 -0.0425655 -0.0024668 -176.309 -0.090242 0.00173456 -0.879802 0.047618 -0.0007163 177.188 173.116 -0.406621 -176.234 -14.9357 0.276855 -0.850103 8.04203 -0.106901 176.776 
6.83414 12.16 34.859 35.7493 -86.1242 -51.3845 1.71723 3.18431 -1.2842 -7.11211 0.863913 0.623179 -8.36312 14.2905 9.29602 24.7966 27.6938 -13.3318 16.5074 -22.2504 -178.491 31.6211 1.9892 18.2795 1.34927 15.0625 174.275 -161.169 -54.5848 -171.165 31.6338 1.99203 18.2866 0.828753 9.38733 174.386 -6.10386 -20.3542 170.331 -28.1687 -1.25883 -1.11273 26.3289 -5.4862 -179.986 178.622 -7.81378 178.132 -40.395 -1.86661 -1.51471 42.8461 -22.3417 -167.313 
6.84932 12.1508 34.935 76.5909 -76.6052 -11.0858 1.37532 3.56972 -1.00129 -6.34163 0.988014 0.384794 -7.28964 13.4153 8.48425 20.3789 26.2982 -11.7136 16.8498 -20.4785 -172.392 29.6062 1.87599 17.0903 1.24776 13.9737 174.301 -158.121 -47.5346 -165.813 29.4872 1.85068 17.024 0.838169 9.49108 174.385 -5.43648 -18.922 171.365 -26.2412 -1.17745 -1.0917 24.9405 -5.54828 -179.916 177.813 -7.92446 178.429 -38.7556 -1.71587 -1.47133 39.9319 -20.9463 -168.618 
6.85674 12.1532 34.9343 74.723 -77.2626 -12.7334 2.19487 4.10143 -1.02151 -6.20539 1.1693 0.0758193 -6.02631 13.5081 8.3057 16.1753 26.648 -11.7584 15.9821 -21.0409 -172.189 30.0202 1.96553 17.3208 1.18144 13.286 174.317 -158.074 -47.4523 -165.797 29.6732 1.89031 17.1278 0.780196 8.84727 174.395 -4.99522 -18.6743 171.17 -26.0269 -1.17646 -1.08778 24.9911 -5.88954 -179.729 177.698 -7.63373 178.882 -39.2634 -1.70131 -1.48184 39.4668 -20.2483 -169.319 
6.87395 12.1522 34.9329 75.597 -78.1915 -12.3534 2.08161 5.125 -0.446414 -6.27197 1.4876 -0.477568 -4.68903 13.5512 8.26048 12.4763 26.9054 -10.915 14.9639 -21.3122 -171.616 30.054 1.97287 17.3398 1.13469 12.7536 174.328 -156.861 -48.1251 -165.131 29.8618 1.93109 17.2328 0.719766 8.17347 174.405 -5.24755 -18.2462 171.745 -26.3406 -1.16947 -1.09803 25.1321 -6.34391 -179.485 176.981 -8.01812 178.341 -39.1656 -1.68979 -1.48119 39.2097 -20.3318 -169.363 
6.88136 12.1574 34.9318 75.2484 -78.744 -12.5493 2.46132 5.89545 -0.430725 -6.53154 1.738 -0.971107 -4.06264 13.5103 7.43278 9.92616 26.9967 -9.16559 13.1804 -20.567 -171.448 29.5878 1.872 17.0802 1.18678 13.3117 174.314 -156.111 -47.2662 -165.298 29.934 1.94666 17.2731 0.740206 8.42429 174.401 -5.11276 -18.0888 171.617 -25.9939 -1.18057 -1.08891 25.2456 -6.68704 -179.284 176.684 -7.91116 178.603 -39.416 -1.68984 -1.47728 39.0208 -20.3027 -169.501 
6.88648 12.1555 34.9333 76.1598 -79.7559 -11.959 2.04221 7.10455 0.312215 -6.80188 2.10991 -1.54861 -3.90452 13.3403 7.27149 10.3042 26.5929 -9.13677 12.5387 -19.7032 -171.688 29.7443 1.90533 17.1676 1.27893 14.294 174.288 -155.519 -46.4488 -165.461 29.4985 1.85264 17.0306 0.783044 8.87743 174.394 -5.47217 -18.2229 171.718 -26.3909 -1.18742 -1.09909 25.7236 -7.68949 -178.708 175.992 -8.17106 178.446 -39.4218 -1.66472 -1.4865 38.4711 -19.9763 -169.943 
6.9006 12.155 34.9207 75.9029 -80.3476 -12.3468 1.96 7.65265 0.48901 -6.97947 2.26946 -1.60775 -4.67374 13.2717 7.41509 12.3813 26.3978 -9.63261 12.801 -19.2872 -171.801 31.1291 2.21463 17.9358 1.11105 12.487 174.329 -155.537 -46.4642 -165.484 27.9913 1.54486 16.1864 1.06783 12.0128 174.337 -5.387 -17.9127 171.933 -26.4694 -1.18931 -1.10127 25.8595 -7.65893 -178.704 175.805 -8.60423 178.237 -39.314 -1.64543 -1.48438 38.0439 -19.9841 -170.137 
6.91874 12.155 34.8972 76.4228 -80.037 -11.7109 1.89125 7.08759 0.076991 -7.08195 2.08879 -1.2845 -4.97335 13.4274 7.59986 13.5688 26.6089 -10.378 13.5906 -19.1342 -171.795 32.3152 2.49315 18.5905 0.977681 11.0302 174.358 -154.792 -47.094 -164.763 27.5865 1.46435 15.9596 1.25178 13.995 174.292 -5.26341 -18.5566 171.85 -26.1175 -1.18174 -1.09267 25.7107 -7.74932 -178.683 176.09 -8.80126 178.109 -39.1068 -1.65536 -1.47963 38.2694 -20.5559 -169.698 
6.93246 12.1585 34.8818 77.1043 -78.3163 -11.2185 1.86247 5.1697 -0.11616 -6.37739 1.50425 -0.627232 -4.68296 13.6456 8.09336 13.525 26.8765 -11.98 14.3711 -19.6418 -171.668 32.926 2.64216 18.926 0.794805 9.00854 174.392 -155.265 -46.7437 -164.323 27.9885 1.5438 16.185 1.21237 13.5726 174.302 -5.22165 -18.995 172.313 -26.4781 -1.18173 -1.10273 25.6968 -6.74068 -179.221 177.143 -8.35131 177.494 -38.4629 -1.67454 -1.46608 39.0093 -21.0062 -169.025 
6.94914 12.1607 34.8821 77.4452 -77.3291 -10.9269 2.25445 4.08653 -0.432501 -6.05029 1.18344 -0.2749 -4.96899 13.7963 8.01855 12.7552 27.4018 -10.9556 15.3017 -21.0449 -170.908 32.3203 2.49637 18.5922 0.804043 9.10922 174.389 -156.195 -45.8467 -164.614 29.1577 1.78069 16.8403 0.899739 10.1715 174.373 -5.30793 -18.3126 172.698 -26.8664 -1.18482 -1.11276 25.5419 -5.43673 -179.907 177.499 -7.97081 177.247 -38.1837 -1.68873 -1.46022 39.4667 -21.3445 -168.568 
6.96772 12.1631 34.881 77.1852 -76.7845 -10.8495 2.66805 3.34849 -1.08967 -6.01988 0.948366 0.347911 -4.44511 14.0182 7.8221 12.057 27.8287 -10.6921 14.8859 -20.3243 -171.068 29.9895 1.95927 17.3035 1.12316 12.607 174.322 -156.081 -45.781 -164.466 29.4523 1.84309 17.0046 0.86545 9.79212 174.379 -5.31371 -18.1808 172.525 -26.7601 -1.1819 -1.10957 25.1521 -4.99813 179.83 177.727 -7.74195 177.453 -38.4413 -1.72012 -1.45644 40.1771 -21.1813 -168.326 
6.97238 12.162 34.8794 78.036 -76.7104 -10.1478 2.52237 3.46619 -0.780428 -6.04661 0.985476 0.216334 -4.46262 13.9651 7.9483 12.6442 27.6475 -11.0972 14.2045 -19.6729 -171.093 28.1191 1.56885 16.2587 1.35157 15.046 174.262 -156.442 -45.4269 -165.131 29.2624 1.80294 16.8986 0.85206 9.6431 174.381 -5.61238 -18.3087 172.656 -26.982 -1.18304 -1.11579 25.2041 -4.91258 179.799 177.582 -7.77792 177.246 -38.313 -1.71503 -1.4624 40.0171 -21.3714 -168.278 
6.96079 12.1609 34.8776 79.3374 -77.0873 -8.39094 2.31547 3.87917 -0.708409 -6.4836 1.12809 -0.362062 -4.87089 13.9698 7.76969 14.0357 27.6092 -10.9374 14.1062 -18.0046 -171.704 27.9508 1.53533 16.1643 1.46697 16.2558 174.228 -156.335 -45.2448 -165.587 29.0424 1.75696 16.7757 0.878675 9.93659 174.375 -5.78368 -19.4803 171.782 -26.1798 -1.17555 -1.09425 25.0524 -6.2269 -179.571 177.04 -7.68062 177.951 -38.8355 -1.71687 -1.47381 39.8192 -21.2766 -168.496 
6.96694 12.1601 34.8693 79.3579 -77.8158 -8.27809 2.10107 4.66941 -0.458072 -6.25696 1.37296 -0.783451 -4.69231 13.9245 7.76722 14.0307 27.4717 -11.0651 14.2814 -17.3193 -172.299 29.0701 1.76403 16.7906 1.3081 14.5886 174.275 -156.593 -45.1095 -165.908 28.5819 1.66208 16.5182 0.956044 10.7873 174.36 -5.61544 -19.5104 171.673 -25.844 -1.17679 -1.08566 25.3197 -6.59574 -179.339 176.713 -7.97206 178.105 -39.0727 -1.70689 -1.47875 39.5635 -20.9838 -168.827 
6.9733 12.1574 34.8737 80.6 -77.9949 -6.82389 1.97482 4.87639 -0.66109 -5.84405 1.43718 -0.907398 -4.85624 13.8696 8.28645 14.1257 27.3576 -11.6918 15.1145 -19.3622 -172.075 30.5573 2.08448 17.6192 0.866071 9.79881 174.379 -156.082 -46.6212 -164.913 28.1458 1.57418 16.2737 1.07379 12.0713 174.333 -5.74084 -19.2944 171.503 -25.4357 -1.17292 -1.0755 25.1914 -6.86758 -179.207 176.231 -7.98365 178.371 -39.5127 -1.71829 -1.48755 39.7153 -20.737 -168.931 
6.99131 12.1601 34.881 80.3034 -77.4539 -7.07923 2.54609 4.23295 -0.873256 -5.7008 1.25159 -0.725849 -5.47953 14.0256 8.16733 14.5801 27.8248 -10.88 15.4447 -21.2785 -171.51 30.4525 2.06076 17.5612 0.771709 8.75815 174.399 -155.574 -48.6956 -163.206 28.0267 1.55051 16.2069 1.08698 12.2132 174.329 -5.78898 -18.951 171.678 -25.5549 -1.16756 -1.07852 24.6691 -6.17908 -179.625 176.357 -7.67026 178.246 -39.5987 -1.73819 -1.49018 40.0251 -21.1347 -168.527 
7.00749 12.1613 34.8818 80.7032 -76.5766 -6.40951 2.8038 3.33573 -1.48044 -5.83749 0.981795 -0.344793 -5.43416 14.0084 8.70324 15.6358 27.6495 -11.6442 15.751 -22.8406 -170.8 29.3878 1.83119 16.9678 1.05248 11.8659 174.349 -155.682 -49.4724 -162.867 27.8551 1.51662 16.1105 1.15779 12.9317 174.313 -6.05511 -18.8904 171.59 -25.3734 -1.16217 -1.07377 24.1399 -5.32216 179.887 176.513 -7.31295 178.429 -39.7046 -1.76511 -1.49065 40.8204 -20.7162 -168.4 
7.0171 12.1613 34.8769 81.6414 -76.3802 -5.85275 2.45923 3.34075 -0.993041 -5.82892 0.976852 -0.313896 -6.15009 13.9876 8.70892 17.7367 27.601 -11.1859 14.9411 -22.6522 -170.933 28.1445 1.57309 16.2734 1.40572 15.6556 174.259 -156.473 -48.3293 -163.785 27.9641 1.53824 16.1717 1.10117 12.3659 174.324 -6.30548 -19.0637 171.989 -25.8407 -1.16761 -1.08586 24.5144 -5.27098 179.896 176.505 -7.51128 177.824 -39.2228 -1.75808 -1.48178 40.7926 -21.1505 -168.097 
7.02602 12.1609 34.8727 83.608 -76.5596 -4.31934 1.97205 3.54199 -0.30286 -5.96847 1.02784 -0.337132 -6.16837 14.0351 8.5545 18.3791 27.5894 -11.4647 14.1109 -21.5757 -171.745 28.6449 1.67485 16.5535 1.39736 15.5604 174.259 -156.611 -47.5383 -164.483 27.747 1.4957 16.0497 1.31003 14.5975 174.27 -6.86432 -19.2025 172.363 -26.3777 -1.17108 -1.09989 24.7727 -5.73028 -179.859 176.125 -7.66911 177.329 -38.7374 -1.73599 -1.47176 40.442 -21.2688 -168.169 
7.03448 12.1593 34.8773 84.0314 -76.7625 -4.14878 2.30861 5.17704 -0.0143707 -5.75556 1.55303 -1.48031 -6.13709 13.4037 9.50729 16.2015 26.5545 -11.8616 13.9138 -23.5335 -170.185 29.4147 1.83526 16.9836 1.10469 12.4272 174.334 -159.124 -45.48 -167.76 27.5959 1.46615 15.9648 1.36163 15.1402 174.255 -7.05267 -19.0157 172.653 -26.8342 -1.17717 -1.11173 25.0264 -5.77315 -179.81 176.003 -7.8257 177.024 -38.4756 -1.7188 -1.46621 40.0342 -21.4862 -168.228 
